<svg xmlns="http://www.w3.org/2000/svg" viewBox="0 0 446.8 153.8"><path d="M16.4 150.9c1.2-.1 1.9-.3 2.2-.6.3-.3.4-.6.4-1.1V114H2.8c-.5 0-.9.2-1.1.5-.3.3-.4 1.1-.6 2.1H0V99.9h1.1c.1 1.1.3 1.8.6 2.1.3.3.6.5 1.1.5h46.5c.5 0 .9-.2 1.1-.5.3-.3.4-1.1.6-2.1h1.1v16.8H51c-.1-1.1-.3-1.8-.6-2.1-.3-.3-.6-.5-1.1-.5H33.1v35.2c0 .4.1.8.4 1.1.3.3 1 .5 2.2.6v1.1H16.4v-1.2zm62.9-1.7c0 .4.1.8.4 1.1.3.3 1 .5 2.2.6v1.1H62.5v-1.1c1.2-.1 1.9-.3 2.2-.6.3-.3.4-.6.4-1.1v-43.9c0-.4-.1-.8-.4-1.1s-1-.5-2.2-.6v-1.1H97c7 0 12 1.3 15.2 3.8 3.1 2.5 4.7 6.5 4.7 11.8 0 4.3-1.3 7.7-3.8 10.2-2.5 2.4-5.8 4.2-9.7 5.3l11.1 15.6c.8 1.1 1.7 1.7 2.7 1.7v1.1H97.6v-1.1c1.4-.1 2.1-.6 2.1-1.7 0-.1-.3-.6-.8-1.3-.5-.8-1.1-1.7-1.9-2.7-.8-1.1-1.6-2.2-2.5-3.4-.9-1.2-1.8-2.4-2.6-3.5s-1.6-2.1-2.2-3l-1.2-1.8h-9.2v15.7zm15.8-25.8c2.8 0 4.7-.5 5.7-1.6 1-1 1.6-2.2 1.6-3.6s-.5-2.6-1.6-3.6c-1-1-2.9-1.6-5.7-1.6H79.3v10.4h15.8zm61.8-21.4c4 0 7.8.6 11.3 1.6 3.5 1.1 6.7 2.7 9.3 4.8 2.7 2.1 4.8 4.8 6.4 7.9 1.6 3.1 2.4 6.8 2.4 10.9 0 4.1-.8 7.8-2.4 10.9-1.6 3.1-3.7 5.8-6.4 7.9-2.7 2.1-5.8 3.7-9.3 4.7-3.5 1-7.3 1.5-11.3 1.5-4 0-7.8-.5-11.3-1.5-3.5-1-6.7-2.6-9.3-4.7-2.7-2.1-4.8-4.8-6.4-7.9-1.6-3.1-2.4-6.8-2.4-10.9 0-4.1.8-7.8 2.4-10.9 1.6-3.1 3.7-5.8 6.4-7.9 2.7-2.1 5.8-3.7 9.3-4.8 3.5-1.1 7.2-1.6 11.3-1.6zm0 11.4c-2.1 0-4 .3-5.9.9-1.9.6-3.5 1.5-4.9 2.7-1.4 1.2-2.5 2.6-3.4 4.3-.8 1.7-1.3 3.7-1.3 5.9s.4 4.2 1.3 5.9c.8 1.7 2 3.2 3.4 4.3 1.4 1.2 3 2.1 4.9 2.7 1.9.6 3.8.9 5.9.9s4-.3 5.9-.9c1.9-.6 3.5-1.5 4.9-2.7 1.4-1.2 2.5-2.6 3.4-4.3.8-1.7 1.3-3.7 1.3-5.9s-.4-4.2-1.3-5.9c-.8-1.7-2-3.2-3.4-4.3-1.4-1.2-3-2.1-4.9-2.7-1.9-.5-3.9-.9-5.9-.9zm67.9-11.4c4 0 7.8.6 11.3 1.6 3.5 1.1 6.7 2.7 9.3 4.8 2.7 2.1 4.8 4.8 6.4 7.9 1.6 3.1 2.4 6.8 2.4 10.9 0 4.1-.8 7.8-2.4 10.9-1.6 3.1-3.7 5.8-6.4 7.9-2.7 2.1-5.8 3.7-9.3 4.7-3.5 1-7.3 1.5-11.3 1.5-4 0-7.8-.5-11.3-1.5-3.5-1-6.7-2.6-9.3-4.7-2.7-2.1-4.8-4.8-6.4-7.9-1.6-3.1-2.4-6.8-2.4-10.9 0-4.1.8-7.8 2.4-10.9 1.6-3.1 3.7-5.8 6.4-7.9 2.7-2.1 5.8-3.7 9.3-4.8 3.5-1.1 7.3-1.6 11.3-1.6zm0 11.4c-2.1 0-4 .3-5.9.9-1.9.6-3.5 1.5-4.9 2.7-1.4 1.2-2.5 2.6-3.4 4.3-.8 1.7-1.3 3.7-1.3 5.9s.4 4.2 1.3 5.9c.8 1.7 2 3.2 3.4 4.3 1.4 1.2 3 2.1 4.9 2.7 1.9.6 3.8.9 5.9.9s4-.3 5.9-.9c1.9-.6 3.5-1.5 4.9-2.7 1.4-1.2 2.5-2.6 3.4-4.3.8-1.7 1.3-3.7 1.3-5.9s-.4-4.2-1.3-5.9c-.8-1.7-2-3.2-3.4-4.3-1.4-1.2-3-2.1-4.9-2.7-1.8-.5-3.8-.9-5.9-.9zm58.4 35.8c0 .4.1.8.4 1.1.3.3 1 .5 2.2.6v1.1h-19.4v-1.1c1.2-.1 1.9-.3 2.2-.6.3-.3.4-.6.4-1.1v-43.9c0-.4-.1-.8-.4-1.1-.3-.3-1-.5-2.2-.6v-1.1h33.7c3 0 5.6.4 7.8 1.3 2.3.8 4.1 2 5.6 3.4s2.6 3.1 3.4 5c.8 1.9 1.1 3.9 1.1 6s-.4 4.1-1.1 6c-.8 1.9-1.9 3.6-3.4 5s-3.4 2.5-5.6 3.4c-2.3.8-4.9 1.3-7.8 1.3h-16.9v15.3zm14.3-25.3c2.6 0 4.6-.4 5.8-1.3 1.2-.9 1.8-2.3 1.8-4.3 0-1.8-.6-3.1-1.8-4-1.2-.8-3.2-1.2-5.8-1.2h-14.3v10.8h14.3zm68.8 10.1c-.1-.6-.4-1.1-.8-1.6-.4-.4-1.1-.6-2-.6H346v8.8h30.2c.5 0 .9-.2 1.1-.5.2-.3.4-1.1.6-2.3h1.1v16.1h-1.1c-.1-.8-.3-1.3-.6-1.5-.3-.2-.6-.3-1.1-.3h-47V151c1.2-.1 1.9-.3 2.2-.6.3-.3.4-.6.4-1.1v-43.9c0-.4-.1-.8-.4-1.1s-1-.5-2.2-.6v-1.1h47c.5 0 .9-.2 1.1-.5.2-.3.4-1.1.6-2.1h1.1v16.4h-1.1c-.1-1.1-.3-1.8-.6-2.1-.3-.3-.6-.5-1.1-.5H346v7.8h17.5c.9 0 1.6-.2 2-.6.4-.4.7-.9.8-1.6h1.1V134h-1.1zm42.5 15.2c0 .4.1.8.4 1.1.3.3 1 .5 2.2.6v1.1H392v-1.1c1.2-.1 1.9-.3 2.2-.6.3-.3.4-.6.4-1.1v-43.9c0-.4-.1-.8-.4-1.1-.3-.3-1-.5-2.2-.6v-1.1h34.5c7 0 12 1.3 15.2 3.8 3.1 2.5 4.7 6.5 4.7 11.8 0 4.3-1.3 7.7-3.8 10.2-2.5 2.4-5.8 4.2-9.7 5.3l11.1 15.6c.8 1.1 1.7 1.7 2.7 1.7v1.1h-19.6v-1.1c1.4-.1 2.1-.6 2.1-1.7 0-.1-.3-.6-.8-1.3-.5-.8-1.1-1.7-1.9-2.7-.8-1.1-1.6-2.2-2.5-3.4-.9-1.2-1.8-2.4-2.6-3.5s-1.6-2.1-2.2-3l-1.2-1.8h-9.2v15.7zm15.8-25.8c2.8 0 4.7-.5 5.7-1.6 1-1 1.6-2.2 1.6-3.6s-.5-2.6-1.6-3.6c-1-1-2.9-1.6-5.7-1.6h-15.8v10.4h15.8zM4.4 5.7c0-.7-.2-1.3-.7-1.8C3.2 3.4 2 3 0 2.8V.9h52.2c7.2 0 13.5 1 18.9 3.1 5.3 2.1 9.8 5 13.2 8.7 3.5 3.7 6.1 8.1 7.8 13.1 1.7 5 2.6 10.5 2.6 16.4 0 5.3-.9 10.5-2.8 15.5-1.8 5-4.6 9.4-8.3 13.2-3.7 3.8-8.3 6.9-13.8 9.2-5.5 2.3-11.9 3.5-19.3 3.5H0v-1.9c2-.2 3.2-.6 3.7-1s.7-1.1.7-1.8V5.7zM48 65.1c8.3 0 14.3-2.1 17.9-6.4 3.7-4.2 5.5-9.7 5.5-16.4 0-6.7-1.8-12.2-5.5-16.4-3.7-4.2-9.6-6.4-17.9-6.4H28v45.6h20zM157.6 0c6.7 0 13 .9 19 2.8 5.9 1.8 11.1 4.5 15.6 8.1 4.5 3.6 8 8 10.6 13.2 2.6 5.2 3.9 11.3 3.9 18.2 0 6.9-1.3 13-3.9 18.2-2.6 5.2-6.2 9.7-10.6 13.2-4.5 3.6-9.7 6.2-15.6 7.9-5.9 1.7-12.2 2.5-19 2.5-6.7 0-13-.8-19-2.5-5.9-1.7-11.1-4.3-15.6-7.9-4.5-3.6-8-8-10.6-13.2-2.6-5.2-3.9-11.3-3.9-18.2 0-6.9 1.3-13 3.9-18.2 2.6-5.2 6.2-9.6 10.6-13.2 4.5-3.6 9.6-6.3 15.6-8.1 6-1.9 12.3-2.8 19-2.8zm0 19.2c-3.5 0-6.7.5-9.8 1.6-3.1 1.1-5.8 2.5-8.2 4.5-2.4 1.9-4.2 4.4-5.7 7.2-1.4 2.9-2.1 6.2-2.1 9.8 0 3.7.7 6.9 2.1 9.8 1.4 2.9 3.3 5.3 5.7 7.2 2.4 1.9 5.1 3.4 8.2 4.5 3.1 1 6.4 1.6 9.8 1.6 3.5 0 6.7-.5 9.8-1.6 3.1-1 5.8-2.5 8.2-4.5 2.4-1.9 4.2-4.4 5.7-7.2 1.4-2.9 2.1-6.2 2.1-9.8 0-3.7-.7-6.9-2.1-9.8-1.4-2.9-3.3-5.3-5.7-7.2-2.4-1.9-5.1-3.4-8.2-4.5-3-1.1-6.3-1.6-9.8-1.6zM271.2 0c6.7 0 13 .9 19 2.8 5.9 1.8 11.1 4.5 15.6 8.1 4.5 3.6 8 8 10.6 13.2 2.6 5.2 3.9 11.3 3.9 18.2 0 6.9-1.3 13-3.9 18.2-2.6 5.2-6.2 9.7-10.6 13.2-4.5 3.6-9.7 6.2-15.6 7.9-5.9 1.7-12.2 2.5-19 2.5-6.7 0-13-.8-19-2.5-5.9-1.7-11.1-4.3-15.6-7.9-4.5-3.6-8-8-10.6-13.2-2.6-5.2-3.9-11.3-3.9-18.2 0-6.9 1.3-13 3.9-18.2 2.6-5.2 6.2-9.6 10.6-13.2 4.5-3.6 9.6-6.3 15.6-8.1 6-1.9 12.3-2.8 19-2.8zm0 19.2c-3.5 0-6.7.5-9.8 1.6-3.1 1.1-5.8 2.5-8.2 4.5-2.4 1.9-4.2 4.4-5.7 7.2-1.4 2.9-2.1 6.2-2.1 9.8 0 3.7.7 6.9 2.1 9.8 1.4 2.9 3.3 5.3 5.7 7.2 2.4 1.9 5.1 3.4 8.2 4.5 3.1 1 6.4 1.6 9.8 1.6 3.5 0 6.7-.5 9.8-1.6 3.1-1 5.8-2.5 8.2-4.5 2.4-1.9 4.2-4.4 5.7-7.2 1.4-2.9 2.1-6.2 2.1-9.8 0-3.7-.7-6.9-2.1-9.8-1.4-2.9-3.3-5.3-5.7-7.2-2.4-1.9-5.1-3.4-8.2-4.5-3.1-1.1-6.3-1.6-9.8-1.6zm144.1 62.6c2-.2 3.2-.6 3.7-1 .5-.5.7-1.1.7-1.8V21.1l-.3-.3-28 61-27.7-61.7h-.3V79c0 .7.2 1.3.7 1.8s1.7.8 3.7 1v1.9h-27.7v-1.9c2-.2 3.2-.6 3.7-1 .5-.5.7-1.1.7-1.8V5.7c0-.7-.2-1.3-.7-1.8-.5-.5-1.7-.8-3.7-1v-2h41.1v1.9c-2.5.1-3.8 1-3.8 2.8 0 .1.3.9.9 2.5.6 1.6 1.4 3.5 2.4 5.8s2.1 4.8 3.3 7.5c1.2 2.7 2.4 5.2 3.5 7.7s2.1 4.6 2.9 6.5c.8 1.9 1.4 3.1 1.7 3.8 1.8-4 3.6-7.9 5.5-11.6 1.9-3.8 3.6-7.2 5.1-10.4 1.5-3.1 2.8-5.8 3.7-7.9.9-2.1 1.4-3.4 1.4-3.9 0-1.8-1.3-2.7-3.8-2.8V.9h42.6v1.9c-2 .2-3.2.6-3.7 1-.5.5-.7 1.1-.7 1.8V79c0 .7.2 1.3.7 1.8.5.5 1.7.8 3.7 1v1.9h-31.5v-1.9z"/></svg>